<mxfile host="app.diagrams.net" modified="2024-01-29T06:35:47.949Z" agent="Mozilla/5.0 (Windows NT 10.0; Win64; x64) AppleWebKit/537.36 (KHTML, like Gecko) Chrome/120.0.0.0 Safari/537.36" etag="s5PeI0Org9kEuTliqM6a" version="23.0.2" type="device">
  <diagram name="第 1 页" id="zBE-RHK8HPmXFEWs6VIG">
    <mxGraphModel dx="774" dy="498" grid="1" gridSize="10" guides="1" tooltips="1" connect="1" arrows="1" fold="1" page="1" pageScale="1" pageWidth="827" pageHeight="1169" math="0" shadow="0">
      <root>
        <mxCell id="0" />
        <mxCell id="1" parent="0" />
        <mxCell id="mF8Upp-wd8MP-LPJcjvB-4" value="" style="endArrow=classic;html=1;rounded=0;strokeWidth=2;" parent="1" edge="1">
          <mxGeometry width="50" height="50" relative="1" as="geometry">
            <mxPoint x="80" y="64" as="sourcePoint" />
            <mxPoint x="640" y="64" as="targetPoint" />
          </mxGeometry>
        </mxCell>
        <mxCell id="mF8Upp-wd8MP-LPJcjvB-5" value="" style="endArrow=classic;html=1;rounded=0;strokeWidth=2;" parent="1" edge="1">
          <mxGeometry width="50" height="50" relative="1" as="geometry">
            <mxPoint x="120" y="24" as="sourcePoint" />
            <mxPoint x="120" y="344" as="targetPoint" />
          </mxGeometry>
        </mxCell>
        <mxCell id="mF8Upp-wd8MP-LPJcjvB-6" value="" style="endArrow=none;html=1;rounded=0;strokeWidth=2;" parent="1" edge="1">
          <mxGeometry width="50" height="50" relative="1" as="geometry">
            <mxPoint x="110" y="104" as="sourcePoint" />
            <mxPoint x="130" y="104" as="targetPoint" />
          </mxGeometry>
        </mxCell>
        <mxCell id="mF8Upp-wd8MP-LPJcjvB-7" value="" style="endArrow=none;html=1;rounded=0;strokeWidth=2;" parent="1" edge="1">
          <mxGeometry width="50" height="50" relative="1" as="geometry">
            <mxPoint x="110" y="144" as="sourcePoint" />
            <mxPoint x="130" y="144" as="targetPoint" />
          </mxGeometry>
        </mxCell>
        <mxCell id="mF8Upp-wd8MP-LPJcjvB-8" value="" style="endArrow=none;html=1;rounded=0;strokeWidth=2;" parent="1" edge="1">
          <mxGeometry width="50" height="50" relative="1" as="geometry">
            <mxPoint x="110" y="184" as="sourcePoint" />
            <mxPoint x="130" y="184" as="targetPoint" />
          </mxGeometry>
        </mxCell>
        <mxCell id="mF8Upp-wd8MP-LPJcjvB-9" value="" style="endArrow=none;html=1;rounded=0;strokeWidth=2;" parent="1" edge="1">
          <mxGeometry width="50" height="50" relative="1" as="geometry">
            <mxPoint x="110" y="224" as="sourcePoint" />
            <mxPoint x="130" y="224" as="targetPoint" />
          </mxGeometry>
        </mxCell>
        <mxCell id="mF8Upp-wd8MP-LPJcjvB-10" value="" style="endArrow=none;html=1;rounded=0;strokeWidth=2;" parent="1" edge="1">
          <mxGeometry width="50" height="50" relative="1" as="geometry">
            <mxPoint x="110" y="264" as="sourcePoint" />
            <mxPoint x="130" y="264" as="targetPoint" />
          </mxGeometry>
        </mxCell>
        <mxCell id="mF8Upp-wd8MP-LPJcjvB-11" value="" style="endArrow=none;html=1;rounded=0;strokeWidth=2;" parent="1" edge="1">
          <mxGeometry width="50" height="50" relative="1" as="geometry">
            <mxPoint x="110" y="304" as="sourcePoint" />
            <mxPoint x="130" y="304" as="targetPoint" />
          </mxGeometry>
        </mxCell>
        <mxCell id="mF8Upp-wd8MP-LPJcjvB-20" value="" style="shape=partialRectangle;whiteSpace=wrap;html=1;bottom=1;right=1;left=1;top=0;fillColor=none;routingCenterX=-0.5;strokeWidth=2;" parent="1" vertex="1">
          <mxGeometry x="200" y="94" width="120" height="10" as="geometry" />
        </mxCell>
        <mxCell id="mF8Upp-wd8MP-LPJcjvB-21" value="" style="shape=partialRectangle;whiteSpace=wrap;html=1;bottom=1;right=1;left=1;top=0;fillColor=none;routingCenterX=-0.5;strokeWidth=2;" parent="1" vertex="1">
          <mxGeometry x="160" y="134" width="210" height="10" as="geometry" />
        </mxCell>
        <mxCell id="mF8Upp-wd8MP-LPJcjvB-22" value="" style="shape=partialRectangle;whiteSpace=wrap;html=1;bottom=1;right=1;left=1;top=0;fillColor=none;routingCenterX=-0.5;strokeWidth=2;" parent="1" vertex="1">
          <mxGeometry x="250" y="174" width="150" height="10" as="geometry" />
        </mxCell>
        <mxCell id="mF8Upp-wd8MP-LPJcjvB-23" value="" style="shape=partialRectangle;whiteSpace=wrap;html=1;bottom=1;right=1;left=1;top=0;fillColor=none;routingCenterX=-0.5;strokeWidth=2;" parent="1" vertex="1">
          <mxGeometry x="350" y="214" width="90" height="10" as="geometry" />
        </mxCell>
        <mxCell id="mF8Upp-wd8MP-LPJcjvB-24" value="" style="shape=partialRectangle;whiteSpace=wrap;html=1;bottom=1;right=1;left=1;top=0;fillColor=none;routingCenterX=-0.5;strokeWidth=2;" parent="1" vertex="1">
          <mxGeometry x="460" y="254" width="70" height="10" as="geometry" />
        </mxCell>
        <mxCell id="mF8Upp-wd8MP-LPJcjvB-25" value="" style="shape=partialRectangle;whiteSpace=wrap;html=1;bottom=1;right=1;left=1;top=0;fillColor=none;routingCenterX=-0.5;strokeWidth=2;" parent="1" vertex="1">
          <mxGeometry x="370" y="294" width="190" height="10" as="geometry" />
        </mxCell>
        <mxCell id="mF8Upp-wd8MP-LPJcjvB-28" value="&lt;p&gt;&lt;font face=&quot;SimSun&quot; data-font-src=&quot;https://fonts.googleapis.com/css?family=SimSun&quot; style=&quot;font-size: 19px;&quot;&gt;索引&lt;/font&gt;&lt;/p&gt;" style="text;html=1;align=center;verticalAlign=middle;resizable=0;points=[];autosize=1;strokeColor=none;fillColor=none;strokeWidth=2;" parent="1" vertex="1">
          <mxGeometry x="66" y="319" width="60" height="60" as="geometry" />
        </mxCell>
        <mxCell id="mF8Upp-wd8MP-LPJcjvB-29" value="&lt;p&gt;&lt;font style=&quot;font-size: 19px;&quot; face=&quot;Times New Roman&quot;&gt;0&lt;/font&gt;&lt;/p&gt;" style="text;html=1;align=center;verticalAlign=middle;resizable=0;points=[];autosize=1;strokeColor=none;fillColor=none;strokeWidth=2;" parent="1" vertex="1">
          <mxGeometry x="81" y="74" width="30" height="60" as="geometry" />
        </mxCell>
        <mxCell id="mF8Upp-wd8MP-LPJcjvB-30" value="&lt;p&gt;&lt;font style=&quot;font-size: 19px;&quot; face=&quot;Times New Roman&quot;&gt;1&lt;/font&gt;&lt;/p&gt;" style="text;html=1;align=center;verticalAlign=middle;resizable=0;points=[];autosize=1;strokeColor=none;fillColor=none;strokeWidth=2;" parent="1" vertex="1">
          <mxGeometry x="81" y="114" width="30" height="60" as="geometry" />
        </mxCell>
        <mxCell id="mF8Upp-wd8MP-LPJcjvB-31" value="&lt;p&gt;&lt;font style=&quot;font-size: 19px;&quot; face=&quot;Times New Roman&quot;&gt;2&lt;/font&gt;&lt;/p&gt;" style="text;html=1;align=center;verticalAlign=middle;resizable=0;points=[];autosize=1;strokeColor=none;fillColor=none;strokeWidth=2;" parent="1" vertex="1">
          <mxGeometry x="81" y="154" width="30" height="60" as="geometry" />
        </mxCell>
        <mxCell id="mF8Upp-wd8MP-LPJcjvB-32" value="&lt;p&gt;&lt;font style=&quot;font-size: 19px;&quot; face=&quot;Times New Roman&quot;&gt;3&lt;/font&gt;&lt;/p&gt;" style="text;html=1;align=center;verticalAlign=middle;resizable=0;points=[];autosize=1;strokeColor=none;fillColor=none;strokeWidth=2;" parent="1" vertex="1">
          <mxGeometry x="81" y="194" width="30" height="60" as="geometry" />
        </mxCell>
        <mxCell id="mF8Upp-wd8MP-LPJcjvB-33" value="&lt;p&gt;&lt;font style=&quot;font-size: 19px;&quot; face=&quot;Times New Roman&quot;&gt;4&lt;/font&gt;&lt;/p&gt;" style="text;html=1;align=center;verticalAlign=middle;resizable=0;points=[];autosize=1;strokeColor=none;fillColor=none;strokeWidth=2;" parent="1" vertex="1">
          <mxGeometry x="81" y="234" width="30" height="60" as="geometry" />
        </mxCell>
        <mxCell id="mF8Upp-wd8MP-LPJcjvB-34" value="&lt;p&gt;&lt;font style=&quot;font-size: 19px;&quot; face=&quot;Times New Roman&quot;&gt;5&lt;/font&gt;&lt;/p&gt;" style="text;html=1;align=center;verticalAlign=middle;resizable=0;points=[];autosize=1;strokeColor=none;fillColor=none;strokeWidth=2;" parent="1" vertex="1">
          <mxGeometry x="81" y="274" width="30" height="60" as="geometry" />
        </mxCell>
        <mxCell id="mF8Upp-wd8MP-LPJcjvB-36" value="" style="endArrow=none;dashed=1;html=1;rounded=0;exitDx=0;exitDy=0;entryX=1;entryY=1;entryDx=0;entryDy=0;strokeWidth=2;" parent="1" source="mF8Upp-wd8MP-LPJcjvB-44" target="mF8Upp-wd8MP-LPJcjvB-21" edge="1">
          <mxGeometry width="50" height="50" relative="1" as="geometry">
            <mxPoint x="370" y="234" as="sourcePoint" />
            <mxPoint x="420" y="184" as="targetPoint" />
          </mxGeometry>
        </mxCell>
        <mxCell id="mF8Upp-wd8MP-LPJcjvB-38" value="" style="endArrow=none;dashed=1;html=1;rounded=0;exitDx=0;exitDy=0;entryX=1;entryY=1;entryDx=0;entryDy=0;strokeWidth=2;" parent="1" source="mF8Upp-wd8MP-LPJcjvB-46" target="mF8Upp-wd8MP-LPJcjvB-22" edge="1">
          <mxGeometry width="50" height="50" relative="1" as="geometry">
            <mxPoint x="370" y="234" as="sourcePoint" />
            <mxPoint x="420" y="184" as="targetPoint" />
          </mxGeometry>
        </mxCell>
        <mxCell id="mF8Upp-wd8MP-LPJcjvB-39" value="" style="endArrow=none;dashed=1;html=1;rounded=0;exitX=1;exitY=1;exitDx=0;exitDy=0;entryX=1;entryY=1;entryDx=0;entryDy=0;strokeWidth=2;" parent="1" source="mF8Upp-wd8MP-LPJcjvB-22" target="mF8Upp-wd8MP-LPJcjvB-23" edge="1">
          <mxGeometry width="50" height="50" relative="1" as="geometry">
            <mxPoint x="370" y="234" as="sourcePoint" />
            <mxPoint x="420" y="184" as="targetPoint" />
          </mxGeometry>
        </mxCell>
        <mxCell id="mF8Upp-wd8MP-LPJcjvB-40" value="" style="endArrow=none;dashed=1;html=1;rounded=0;exitDx=0;exitDy=0;entryX=1;entryY=1;entryDx=0;entryDy=0;strokeWidth=2;" parent="1" source="mF8Upp-wd8MP-LPJcjvB-49" target="mF8Upp-wd8MP-LPJcjvB-24" edge="1">
          <mxGeometry width="50" height="50" relative="1" as="geometry">
            <mxPoint x="370" y="234" as="sourcePoint" />
            <mxPoint x="420" y="184" as="targetPoint" />
          </mxGeometry>
        </mxCell>
        <mxCell id="mF8Upp-wd8MP-LPJcjvB-41" value="" style="endArrow=none;dashed=1;html=1;rounded=0;exitDx=0;exitDy=0;entryX=1;entryY=1;entryDx=0;entryDy=0;strokeWidth=2;" parent="1" source="mF8Upp-wd8MP-LPJcjvB-52" target="mF8Upp-wd8MP-LPJcjvB-24" edge="1">
          <mxGeometry width="50" height="50" relative="1" as="geometry">
            <mxPoint x="370" y="234" as="sourcePoint" />
            <mxPoint x="420" y="184" as="targetPoint" />
          </mxGeometry>
        </mxCell>
        <mxCell id="mF8Upp-wd8MP-LPJcjvB-45" value="" style="endArrow=none;dashed=1;html=1;rounded=0;exitX=1;exitY=1;exitDx=0;exitDy=0;entryDx=0;entryDy=0;strokeWidth=2;" parent="1" source="mF8Upp-wd8MP-LPJcjvB-20" target="mF8Upp-wd8MP-LPJcjvB-44" edge="1">
          <mxGeometry width="50" height="50" relative="1" as="geometry">
            <mxPoint x="320" y="104" as="sourcePoint" />
            <mxPoint x="370" y="144" as="targetPoint" />
          </mxGeometry>
        </mxCell>
        <mxCell id="mF8Upp-wd8MP-LPJcjvB-44" value="" style="shape=waypoint;sketch=0;fillStyle=solid;size=6;pointerEvents=1;points=[];fillColor=none;resizable=0;rotatable=0;perimeter=centerPerimeter;snapToPoint=1;strokeWidth=2;" parent="1" vertex="1">
          <mxGeometry x="310" y="94" width="20" height="20" as="geometry" />
        </mxCell>
        <mxCell id="mF8Upp-wd8MP-LPJcjvB-48" value="" style="endArrow=none;dashed=1;html=1;rounded=0;exitX=1;exitY=1;exitDx=0;exitDy=0;entryDx=0;entryDy=0;strokeWidth=2;" parent="1" source="mF8Upp-wd8MP-LPJcjvB-21" target="mF8Upp-wd8MP-LPJcjvB-46" edge="1">
          <mxGeometry width="50" height="50" relative="1" as="geometry">
            <mxPoint x="370" y="144" as="sourcePoint" />
            <mxPoint x="400" y="184" as="targetPoint" />
          </mxGeometry>
        </mxCell>
        <mxCell id="mF8Upp-wd8MP-LPJcjvB-46" value="" style="shape=waypoint;sketch=0;fillStyle=solid;size=6;pointerEvents=1;points=[];fillColor=none;resizable=0;rotatable=0;perimeter=centerPerimeter;snapToPoint=1;strokeWidth=2;" parent="1" vertex="1">
          <mxGeometry x="360" y="134" width="20" height="20" as="geometry" />
        </mxCell>
        <mxCell id="mF8Upp-wd8MP-LPJcjvB-51" value="" style="endArrow=none;dashed=1;html=1;rounded=0;exitX=1;exitY=1;exitDx=0;exitDy=0;entryDx=0;entryDy=0;strokeWidth=2;" parent="1" source="mF8Upp-wd8MP-LPJcjvB-23" target="mF8Upp-wd8MP-LPJcjvB-49" edge="1">
          <mxGeometry width="50" height="50" relative="1" as="geometry">
            <mxPoint x="440" y="224" as="sourcePoint" />
            <mxPoint x="530" y="264" as="targetPoint" />
          </mxGeometry>
        </mxCell>
        <mxCell id="mF8Upp-wd8MP-LPJcjvB-49" value="" style="shape=waypoint;sketch=0;fillStyle=solid;size=6;pointerEvents=1;points=[];fillColor=none;resizable=0;rotatable=0;perimeter=centerPerimeter;snapToPoint=1;strokeWidth=2;" parent="1" vertex="1">
          <mxGeometry x="430" y="214" width="20" height="20" as="geometry" />
        </mxCell>
        <mxCell id="mF8Upp-wd8MP-LPJcjvB-54" value="" style="endArrow=none;dashed=1;html=1;rounded=0;exitDx=0;exitDy=0;entryDx=0;entryDy=0;strokeWidth=2;" parent="1" source="mF8Upp-wd8MP-LPJcjvB-55" target="mF8Upp-wd8MP-LPJcjvB-52" edge="1">
          <mxGeometry width="50" height="50" relative="1" as="geometry">
            <mxPoint x="560" y="304" as="sourcePoint" />
            <mxPoint x="530" y="264" as="targetPoint" />
          </mxGeometry>
        </mxCell>
        <mxCell id="mF8Upp-wd8MP-LPJcjvB-52" value="" style="shape=waypoint;sketch=0;fillStyle=solid;size=6;pointerEvents=1;points=[];fillColor=none;resizable=0;rotatable=0;perimeter=centerPerimeter;snapToPoint=1;strokeWidth=2;" parent="1" vertex="1">
          <mxGeometry x="520" y="254" width="20" height="20" as="geometry" />
        </mxCell>
        <mxCell id="mF8Upp-wd8MP-LPJcjvB-57" value="" style="endArrow=none;dashed=1;html=1;rounded=0;exitX=1;exitY=1;exitDx=0;exitDy=0;entryDx=0;entryDy=0;strokeWidth=2;" parent="1" source="mF8Upp-wd8MP-LPJcjvB-25" target="mF8Upp-wd8MP-LPJcjvB-55" edge="1">
          <mxGeometry width="50" height="50" relative="1" as="geometry">
            <mxPoint x="560" y="304" as="sourcePoint" />
            <mxPoint x="530" y="264" as="targetPoint" />
          </mxGeometry>
        </mxCell>
        <mxCell id="mF8Upp-wd8MP-LPJcjvB-55" value="" style="shape=waypoint;sketch=0;fillStyle=solid;size=6;pointerEvents=1;points=[];fillColor=none;resizable=0;rotatable=0;perimeter=centerPerimeter;snapToPoint=1;strokeWidth=2;" parent="1" vertex="1">
          <mxGeometry x="550" y="294" width="20" height="20" as="geometry" />
        </mxCell>
        <mxCell id="mF8Upp-wd8MP-LPJcjvB-58" value="&lt;p&gt;&lt;font data-font-src=&quot;https://fonts.googleapis.com/css?family=SimSun&quot; face=&quot;SimSun&quot; style=&quot;font-size: 19px;&quot;&gt;按end排序&lt;/font&gt;&lt;/p&gt;" style="text;html=1;align=center;verticalAlign=middle;resizable=0;points=[];autosize=1;strokeColor=none;fillColor=none;strokeWidth=2;" parent="1" vertex="1">
          <mxGeometry x="475" y="134" width="110" height="60" as="geometry" />
        </mxCell>
        <mxCell id="mF8Upp-wd8MP-LPJcjvB-97" value="" style="endArrow=classic;html=1;rounded=0;strokeWidth=2;" parent="1" edge="1">
          <mxGeometry width="50" height="50" relative="1" as="geometry">
            <mxPoint x="79" y="424" as="sourcePoint" />
            <mxPoint x="639" y="424" as="targetPoint" />
          </mxGeometry>
        </mxCell>
        <mxCell id="mF8Upp-wd8MP-LPJcjvB-98" value="" style="endArrow=classic;html=1;rounded=0;strokeWidth=2;" parent="1" edge="1">
          <mxGeometry width="50" height="50" relative="1" as="geometry">
            <mxPoint x="119" y="384" as="sourcePoint" />
            <mxPoint x="119" y="704" as="targetPoint" />
          </mxGeometry>
        </mxCell>
        <mxCell id="mF8Upp-wd8MP-LPJcjvB-99" value="" style="endArrow=none;html=1;rounded=0;strokeWidth=2;" parent="1" edge="1">
          <mxGeometry width="50" height="50" relative="1" as="geometry">
            <mxPoint x="109" y="464" as="sourcePoint" />
            <mxPoint x="129" y="464" as="targetPoint" />
          </mxGeometry>
        </mxCell>
        <mxCell id="mF8Upp-wd8MP-LPJcjvB-100" value="" style="endArrow=none;html=1;rounded=0;strokeWidth=2;" parent="1" edge="1">
          <mxGeometry width="50" height="50" relative="1" as="geometry">
            <mxPoint x="109" y="504" as="sourcePoint" />
            <mxPoint x="129" y="504" as="targetPoint" />
          </mxGeometry>
        </mxCell>
        <mxCell id="mF8Upp-wd8MP-LPJcjvB-101" value="" style="endArrow=none;html=1;rounded=0;strokeWidth=2;" parent="1" edge="1">
          <mxGeometry width="50" height="50" relative="1" as="geometry">
            <mxPoint x="109" y="544" as="sourcePoint" />
            <mxPoint x="129" y="544" as="targetPoint" />
          </mxGeometry>
        </mxCell>
        <mxCell id="mF8Upp-wd8MP-LPJcjvB-102" value="" style="endArrow=none;html=1;rounded=0;strokeWidth=2;" parent="1" edge="1">
          <mxGeometry width="50" height="50" relative="1" as="geometry">
            <mxPoint x="109" y="584" as="sourcePoint" />
            <mxPoint x="129" y="584" as="targetPoint" />
          </mxGeometry>
        </mxCell>
        <mxCell id="mF8Upp-wd8MP-LPJcjvB-103" value="" style="endArrow=none;html=1;rounded=0;strokeWidth=2;" parent="1" edge="1">
          <mxGeometry width="50" height="50" relative="1" as="geometry">
            <mxPoint x="109" y="624" as="sourcePoint" />
            <mxPoint x="129" y="624" as="targetPoint" />
          </mxGeometry>
        </mxCell>
        <mxCell id="mF8Upp-wd8MP-LPJcjvB-104" value="" style="endArrow=none;html=1;rounded=0;strokeWidth=2;" parent="1" edge="1">
          <mxGeometry width="50" height="50" relative="1" as="geometry">
            <mxPoint x="109" y="664" as="sourcePoint" />
            <mxPoint x="129" y="664" as="targetPoint" />
          </mxGeometry>
        </mxCell>
        <mxCell id="mF8Upp-wd8MP-LPJcjvB-105" value="" style="shape=partialRectangle;whiteSpace=wrap;html=1;bottom=1;right=1;left=1;top=0;fillColor=none;routingCenterX=-0.5;strokeWidth=4;" parent="1" vertex="1">
          <mxGeometry x="199" y="454" width="120" height="10" as="geometry" />
        </mxCell>
        <mxCell id="mF8Upp-wd8MP-LPJcjvB-106" value="" style="shape=partialRectangle;whiteSpace=wrap;html=1;bottom=1;right=1;left=1;top=0;fillColor=none;routingCenterX=-0.5;strokeWidth=2;" parent="1" vertex="1">
          <mxGeometry x="159" y="494" width="210" height="10" as="geometry" />
        </mxCell>
        <mxCell id="mF8Upp-wd8MP-LPJcjvB-107" value="" style="shape=partialRectangle;whiteSpace=wrap;html=1;bottom=1;right=1;left=1;top=0;fillColor=none;routingCenterX=-0.5;strokeWidth=2;" parent="1" vertex="1">
          <mxGeometry x="249" y="534" width="150" height="10" as="geometry" />
        </mxCell>
        <mxCell id="mF8Upp-wd8MP-LPJcjvB-108" value="" style="shape=partialRectangle;whiteSpace=wrap;html=1;bottom=1;right=1;left=1;top=0;fillColor=none;routingCenterX=-0.5;strokeWidth=4;" parent="1" vertex="1">
          <mxGeometry x="349" y="574" width="90" height="10" as="geometry" />
        </mxCell>
        <mxCell id="mF8Upp-wd8MP-LPJcjvB-109" value="" style="shape=partialRectangle;whiteSpace=wrap;html=1;bottom=1;right=1;left=1;top=0;fillColor=none;routingCenterX=-0.5;strokeWidth=4;" parent="1" vertex="1">
          <mxGeometry x="459" y="614" width="70" height="10" as="geometry" />
        </mxCell>
        <mxCell id="mF8Upp-wd8MP-LPJcjvB-110" value="" style="shape=partialRectangle;whiteSpace=wrap;html=1;bottom=1;right=1;left=1;top=0;fillColor=none;routingCenterX=-0.5;strokeWidth=2;" parent="1" vertex="1">
          <mxGeometry x="369" y="654" width="190" height="10" as="geometry" />
        </mxCell>
        <mxCell id="mF8Upp-wd8MP-LPJcjvB-111" value="&lt;p&gt;&lt;font face=&quot;SimSun&quot; style=&quot;font-size: 19px;&quot;&gt;索引&lt;/font&gt;&lt;/p&gt;" style="text;html=1;align=center;verticalAlign=middle;resizable=0;points=[];autosize=1;strokeColor=none;fillColor=none;strokeWidth=2;" parent="1" vertex="1">
          <mxGeometry x="65" y="679" width="60" height="60" as="geometry" />
        </mxCell>
        <mxCell id="mF8Upp-wd8MP-LPJcjvB-112" value="&lt;p&gt;&lt;font style=&quot;font-size: 19px;&quot; face=&quot;Times New Roman&quot;&gt;0&lt;/font&gt;&lt;/p&gt;" style="text;html=1;align=center;verticalAlign=middle;resizable=0;points=[];autosize=1;strokeColor=none;fillColor=none;strokeWidth=2;" parent="1" vertex="1">
          <mxGeometry x="80" y="434" width="30" height="60" as="geometry" />
        </mxCell>
        <mxCell id="mF8Upp-wd8MP-LPJcjvB-113" value="&lt;p&gt;&lt;font style=&quot;font-size: 19px;&quot; face=&quot;Times New Roman&quot;&gt;1&lt;/font&gt;&lt;/p&gt;" style="text;html=1;align=center;verticalAlign=middle;resizable=0;points=[];autosize=1;strokeColor=none;fillColor=none;strokeWidth=2;" parent="1" vertex="1">
          <mxGeometry x="80" y="474" width="30" height="60" as="geometry" />
        </mxCell>
        <mxCell id="mF8Upp-wd8MP-LPJcjvB-114" value="&lt;p&gt;&lt;font style=&quot;font-size: 19px;&quot; face=&quot;Times New Roman&quot;&gt;2&lt;/font&gt;&lt;/p&gt;" style="text;html=1;align=center;verticalAlign=middle;resizable=0;points=[];autosize=1;strokeColor=none;fillColor=none;strokeWidth=2;" parent="1" vertex="1">
          <mxGeometry x="80" y="514" width="30" height="60" as="geometry" />
        </mxCell>
        <mxCell id="mF8Upp-wd8MP-LPJcjvB-115" value="&lt;p&gt;&lt;font style=&quot;font-size: 19px;&quot; face=&quot;Times New Roman&quot;&gt;3&lt;/font&gt;&lt;/p&gt;" style="text;html=1;align=center;verticalAlign=middle;resizable=0;points=[];autosize=1;strokeColor=none;fillColor=none;strokeWidth=2;" parent="1" vertex="1">
          <mxGeometry x="80" y="554" width="30" height="60" as="geometry" />
        </mxCell>
        <mxCell id="mF8Upp-wd8MP-LPJcjvB-116" value="&lt;p&gt;&lt;font style=&quot;font-size: 19px;&quot; face=&quot;Times New Roman&quot;&gt;4&lt;/font&gt;&lt;/p&gt;" style="text;html=1;align=center;verticalAlign=middle;resizable=0;points=[];autosize=1;strokeColor=none;fillColor=none;strokeWidth=2;" parent="1" vertex="1">
          <mxGeometry x="80" y="594" width="30" height="60" as="geometry" />
        </mxCell>
        <mxCell id="mF8Upp-wd8MP-LPJcjvB-117" value="&lt;p&gt;&lt;font style=&quot;font-size: 19px;&quot; face=&quot;Times New Roman&quot;&gt;5&lt;/font&gt;&lt;/p&gt;" style="text;html=1;align=center;verticalAlign=middle;resizable=0;points=[];autosize=1;strokeColor=none;fillColor=none;strokeWidth=2;" parent="1" vertex="1">
          <mxGeometry x="80" y="634" width="30" height="60" as="geometry" />
        </mxCell>
        <mxCell id="mF8Upp-wd8MP-LPJcjvB-122" value="" style="endArrow=none;dashed=1;html=1;rounded=0;exitDx=0;exitDy=0;entryX=1;entryY=1;entryDx=0;entryDy=0;strokeWidth=2;" parent="1" target="mF8Upp-wd8MP-LPJcjvB-109" edge="1">
          <mxGeometry width="50" height="50" relative="1" as="geometry">
            <mxPoint x="529" y="624" as="sourcePoint" />
            <mxPoint x="419" y="544" as="targetPoint" />
          </mxGeometry>
        </mxCell>
        <mxCell id="mF8Upp-wd8MP-LPJcjvB-123" value="" style="endArrow=none;dashed=1;html=1;rounded=0;exitX=1;exitY=1;exitDx=0;exitDy=0;entryDx=0;entryDy=0;strokeWidth=2;" parent="1" source="mF8Upp-wd8MP-LPJcjvB-105" edge="1">
          <mxGeometry width="50" height="50" relative="1" as="geometry">
            <mxPoint x="319" y="464" as="sourcePoint" />
            <mxPoint x="319" y="464" as="targetPoint" />
          </mxGeometry>
        </mxCell>
        <mxCell id="mF8Upp-wd8MP-LPJcjvB-125" value="" style="endArrow=none;dashed=1;html=1;rounded=0;exitX=1;exitY=1;exitDx=0;exitDy=0;entryDx=0;entryDy=0;strokeWidth=2;" parent="1" source="mF8Upp-wd8MP-LPJcjvB-106" edge="1">
          <mxGeometry width="50" height="50" relative="1" as="geometry">
            <mxPoint x="369" y="504" as="sourcePoint" />
            <mxPoint x="369" y="504" as="targetPoint" />
          </mxGeometry>
        </mxCell>
        <mxCell id="mF8Upp-wd8MP-LPJcjvB-127" value="" style="endArrow=none;dashed=1;html=1;rounded=0;exitX=1;exitY=1;exitDx=0;exitDy=0;entryDx=0;entryDy=0;strokeWidth=2;" parent="1" source="mF8Upp-wd8MP-LPJcjvB-108" edge="1">
          <mxGeometry width="50" height="50" relative="1" as="geometry">
            <mxPoint x="439" y="584" as="sourcePoint" />
            <mxPoint x="439" y="584" as="targetPoint" />
          </mxGeometry>
        </mxCell>
        <mxCell id="mF8Upp-wd8MP-LPJcjvB-131" value="" style="endArrow=none;dashed=1;html=1;rounded=0;exitX=1;exitY=1;exitDx=0;exitDy=0;entryDx=0;entryDy=0;strokeWidth=2;" parent="1" source="mF8Upp-wd8MP-LPJcjvB-110" edge="1">
          <mxGeometry width="50" height="50" relative="1" as="geometry">
            <mxPoint x="559" y="664" as="sourcePoint" />
            <mxPoint x="559" y="664" as="targetPoint" />
          </mxGeometry>
        </mxCell>
        <mxCell id="mF8Upp-wd8MP-LPJcjvB-133" value="&lt;p&gt;&lt;font face=&quot;SimSun&quot; data-font-src=&quot;https://fonts.googleapis.com/css?family=SimSun&quot; style=&quot;font-size: 19px;&quot;&gt;得到结果&lt;/font&gt;&lt;/p&gt;" style="text;html=1;align=center;verticalAlign=middle;resizable=0;points=[];autosize=1;strokeColor=none;fillColor=none;strokeWidth=2;" parent="1" vertex="1">
          <mxGeometry x="479" y="494" width="100" height="60" as="geometry" />
        </mxCell>
      </root>
    </mxGraphModel>
  </diagram>
</mxfile>
